<svg width="104" height="104" viewBox="0 0 104 104" fill="none" xmlns="http://www.w3.org/2000/svg">
<g clip-path="url(#clip0)">
<path d="M4.05872 103.999C2.03546 103.999 0.283964 102.489 0.031488 100.43C-0.2413 98.203 1.34282 96.1767 3.56961 95.9037C3.74064 95.8824 12.4936 94.7699 25.0811 91.2801C36.6991 88.0592 54.0647 82.0934 70.8189 71.9633C70.8421 71.9493 70.8655 71.9355 70.8888 71.9219C70.9512 71.8857 77.4368 68.1014 83.7856 62.2343C89.2999 57.1387 95.8732 49.3749 95.8732 41.3263C95.8732 41.2528 95.8706 41.278 95.8732 41.2331C95.8633 40.8484 95.6898 37.765 92.721 35.5468C89.8975 33.4368 82.4516 30.6872 64.3074 35.9725C64.2684 35.9839 61.235 36.8693 56.8158 38.7148C54.7456 39.5793 52.3662 38.6019 51.5016 36.5317C50.6369 34.4615 51.6143 32.0822 53.6847 31.2175C58.5723 29.1762 61.9075 28.2085 62.0473 28.1683C78.6372 23.3357 90.6758 23.6863 97.8163 29.2143C102.826 33.0927 104.057 38.6506 103.998 41.3801C103.978 50.2215 98.9925 59.2824 89.1793 68.3127C82.3703 74.5783 75.6296 78.5628 74.9924 78.9341C57.3973 89.5674 39.2295 95.7993 27.0826 99.156C13.8941 102.801 4.93274 103.922 4.55778 103.968C4.39001 103.989 4.22325 103.999 4.05872 103.999ZM95.8753 41.2038C95.8753 41.204 95.8753 41.204 95.8753 41.2038V41.2038ZM21.7493 79.2112C15.2 79.2114 9.99507 77.7357 6.18395 74.7852C1.17403 70.9067 -0.057478 65.3488 0.00203575 62.6192C0.0221445 53.7779 5.00769 44.717 14.821 35.6867C21.6299 29.4211 28.3706 25.4365 29.0078 25.0652C46.6029 14.432 64.7707 8.2001 76.9176 4.84336C90.1059 1.199 99.0673 0.0777893 99.4422 0.0318845C101.669 -0.24131 103.696 1.34322 103.969 3.57001C104.242 5.7968 102.657 7.82331 100.43 8.09631C100.259 8.11763 91.5064 9.23011 78.9189 12.7199C67.3009 15.9407 49.9353 21.9065 33.1811 32.0367C33.1579 32.0507 33.1345 32.0645 33.1112 32.0781C33.0488 32.1143 26.5633 35.8986 20.2144 41.7657C14.7001 46.8613 8.12678 54.6251 8.12678 62.6737C8.12678 62.7472 8.12942 62.722 8.12678 62.7669C8.13673 63.1516 8.3102 66.235 11.279 68.4532C14.1023 70.563 21.5485 73.3128 39.6926 68.0275C39.8972 67.9682 59.4112 62.2077 72.4853 49.1285C74.0715 47.5415 76.6438 47.5413 78.2303 49.1273C79.8171 50.7134 79.8177 53.2855 78.2316 54.8723C63.6426 69.4666 42.8314 75.5782 41.9527 75.8311C34.2178 78.0845 27.4704 79.2108 21.7493 79.2112ZM3.86109 21.126C3.86109 23.9304 6.13459 26.2039 8.93905 26.2039C11.7435 26.2039 14.017 23.9304 14.017 21.126C14.017 18.3215 11.7435 16.048 8.93905 16.048C6.13459 16.048 3.86109 18.3215 3.86109 21.126ZM84.4992 95.8736C84.4992 98.6781 86.7727 100.952 89.5772 100.952C92.3816 100.952 94.6551 98.6781 94.6551 95.8736C94.6551 93.0692 92.3816 90.7957 89.5772 90.7957C86.7727 90.7957 84.4992 93.0692 84.4992 95.8736ZM93.8427 78.2023C93.8427 81.0068 96.1162 83.2803 98.9206 83.2803C101.725 83.2803 103.999 81.0068 103.999 78.2023C103.999 75.3978 101.725 73.1243 98.9206 73.1243C96.1162 73.1243 93.8427 75.3978 93.8427 78.2023ZM28.6416 56.0624C27.6022 56.0624 26.5628 55.6659 25.7697 54.8731C24.1829 53.287 24.1823 50.7149 25.7684 49.1281C29.6043 45.2906 34.2281 41.6958 39.5115 38.4432C41.422 37.267 43.9242 37.8625 45.1005 39.7729C46.2767 41.6834 45.6814 44.1858 43.7709 45.3619C39.0268 48.2825 34.9031 51.4822 31.5147 54.8719C30.7215 55.6657 29.6815 56.0624 28.6416 56.0624ZM22.9542 5.07959C22.9542 7.88405 25.2277 10.1576 28.0322 10.1576C30.8367 10.1576 33.1102 7.88405 33.1102 5.07959C33.1102 2.27513 30.8367 0.00161982 28.0322 0.00161982C25.2277 0.00161982 22.9542 2.27513 22.9542 5.07959ZM59.3125 98.9204C59.3125 101.725 61.586 103.998 64.3904 103.998C67.1949 103.998 69.4684 101.725 69.4684 98.9204C69.4684 96.116 67.1949 93.8424 64.3904 93.8424C61.586 93.8424 59.3125 96.116 59.3125 98.9204Z" fill="white"/>
</g>
<defs>
<clipPath id="clip0">
<rect width="104" height="104" fill="white"/>
</clipPath>
</defs>
</svg>
