<svg width="104" height="105" viewBox="0 0 104 105" fill="none" xmlns="http://www.w3.org/2000/svg">
<path d="M52.001 40.2592C45.5277 40.2592 40.2588 45.5264 40.2588 52.0014C40.2588 58.4764 45.5277 63.7437 52.001 63.7437C58.4744 63.7437 63.7433 58.4764 63.7433 52.0014C63.7433 45.5264 58.4744 40.2592 52.001 40.2592ZM52.001 60.3887C47.3763 60.3887 43.6137 56.6262 43.6137 52.0014C43.6137 47.3766 47.3763 43.6141 52.001 43.6141C56.6258 43.6141 60.3884 47.3766 60.3884 52.0014C60.3884 56.6262 56.6258 60.3887 52.001 60.3887Z" fill="white"/>
<path d="M99.8071 68.2225C99.0154 67.7646 98.1632 67.4827 97.2926 67.3033V36.7214C98.1649 36.5419 99.0137 36.24 99.8071 35.782C103.813 33.4688 105.19 28.329 102.879 24.3232C100.565 20.3208 95.4256 18.9453 91.4198 21.2535C90.8159 21.6024 90.2892 22.0369 89.7994 22.5082L60.2793 7.30872C59.7426 3.19725 56.2568 0 52.0011 0C47.747 0 44.2596 3.19725 43.7228 7.30704L14.2027 22.5065C13.7179 22.0369 13.1929 21.6024 12.5823 21.2518C8.57483 18.9403 3.43676 20.3158 1.12353 24.3232C-1.18801 28.3274 0.189184 33.4671 4.19497 35.7803C4.98841 36.2383 5.83889 36.5419 6.71117 36.7197L6.70781 67.3066C5.8456 67.4811 4.99344 67.7579 4.19162 68.2208C0.18583 70.5324 -1.18969 75.6721 1.12186 79.6796C2.2424 81.6204 4.05071 83.0077 6.21464 83.5881C6.93763 83.781 7.67068 83.8766 8.3987 83.8766C9.85138 83.8766 11.2873 83.4958 12.5789 82.7494C13.1879 82.3971 13.7146 81.9626 14.1994 81.4929L43.7228 96.6958C44.2596 100.806 47.747 104.003 52.0011 104.003C56.2568 104.003 59.7426 100.806 60.2793 96.6941L89.7994 81.4963C90.2842 81.966 90.8092 82.4004 91.4198 82.751C92.7366 83.5109 94.1776 83.8733 95.5984 83.8733C98.4987 83.8733 101.325 82.3702 102.879 79.6813C105.19 75.6755 103.813 70.5357 99.8071 68.2225ZM89.3498 69.9117L73.8081 61.0916V42.9112L89.3498 34.0911C90.4284 35.309 91.8358 36.188 93.4428 36.6191C93.6072 36.6627 93.7733 36.6845 93.9377 36.718V67.3033C93.7733 67.3368 93.6072 67.3418 93.4428 67.3855C91.8358 67.8166 90.4284 68.6955 89.3498 69.9117ZM93.0973 24.1605C93.889 23.7043 94.7513 23.4879 95.6051 23.4879C97.3446 23.4879 99.0422 24.3903 99.9732 26.0024C101.36 28.4062 100.533 31.4894 98.1297 32.8766C96.9655 33.5493 95.6084 33.7271 94.3118 33.3799C93.0134 33.031 91.9281 32.1989 91.2571 31.0348C89.8681 28.631 90.6935 25.5461 93.0973 24.1605ZM59.9556 10.9169L87.9022 25.3079C87.7613 25.6484 87.6086 25.9856 87.5113 26.3479C87.0768 27.9684 87.1356 29.6408 87.6606 31.1941L72.139 40.0025L53.6785 29.2315V16.6052C56.6644 15.9963 59.0414 13.7804 59.9556 10.9169ZM52.0011 71.866L33.5489 61.1017V42.8995L52.0011 32.1352L70.4532 42.8995V61.1033L52.0011 71.866ZM52.0011 3.35493C54.7756 3.35493 57.0334 5.6128 57.0334 8.38733C57.0334 11.1619 54.7756 13.4197 52.0011 13.4197C49.2265 13.4197 46.9687 11.1619 46.9687 8.38733C46.9687 5.6128 49.2265 3.35493 52.0011 3.35493ZM44.0465 10.9153C44.9607 13.7804 47.3377 15.9963 50.3236 16.6052V29.2315L31.8614 40.0025L16.3365 31.1908C16.9957 29.2332 16.8615 27.1481 16.0983 25.3079L44.0465 10.9153ZM14.6523 69.9084C13.4294 68.5345 11.8023 67.6622 10.0644 67.3049L10.0678 36.7147C10.2322 36.6811 10.3982 36.661 10.561 36.6157C12.168 36.1846 13.5754 35.3056 14.654 34.0894L30.194 42.9129V61.0899L14.6523 69.9084ZM4.0289 26.0007C4.96157 24.387 6.65749 23.4845 8.39702 23.4845C9.25085 23.4845 10.1147 23.7009 10.9048 24.1572C13.3086 25.5444 14.134 28.6293 12.7467 31.0314C12.0757 32.1956 10.9904 33.0276 9.69202 33.3748C8.39367 33.7238 7.0366 33.5443 5.87411 32.8716C3.46863 31.486 2.64164 28.4028 4.0289 26.0007ZM10.9015 79.8423C9.73732 80.515 8.38192 80.6928 7.08357 80.3456C5.78521 79.9983 4.69989 79.1646 4.02723 78.0021C2.63996 75.5983 3.46527 72.5151 5.86908 71.1279C6.65917 70.6699 7.52306 70.4535 8.37689 70.4535C10.1164 70.4535 11.8123 71.356 12.745 72.9697C14.1323 75.3719 13.3053 78.455 10.9015 79.8423ZM44.0465 93.0876L16.0966 78.6949C16.8615 76.8531 16.994 74.768 16.3348 72.8104L31.8614 64.0003L50.3236 74.7713V87.3976C47.3377 88.0065 44.9607 90.2225 44.0465 93.0876ZM52.0011 100.648C49.2265 100.648 46.9687 98.39 46.9687 95.6155C46.9687 92.841 49.2265 90.5831 52.0011 90.5831C54.7756 90.5831 57.0334 92.841 57.0334 95.6155C57.0334 98.39 54.7756 100.648 52.0011 100.648ZM59.9556 93.0859C59.0414 90.2225 56.6644 88.0065 53.6785 87.3976V74.7713L72.1407 64.0003L87.6656 72.812C87.0064 74.7697 87.1406 76.8548 87.9038 78.6966L59.9556 93.0859ZM99.9732 78.0021C98.5843 80.4059 95.4977 81.2313 93.0973 79.844C90.6935 78.4567 89.8681 75.3719 91.2554 72.9697C91.9264 71.8056 93.0117 70.9736 94.3101 70.6263C94.7445 70.5106 95.184 70.4535 95.6219 70.4535C96.4941 70.4535 97.3547 70.6817 98.1297 71.1296C100.533 72.5168 101.36 75.6 99.9732 78.0021Z" fill="white"/>
</svg>
