<svg width="60" height="60" viewBox="0 0 60 60" fill="none" xmlns="http://www.w3.org/2000/svg">
<g clip-path="url(#clip0)">
<path d="M11.1537 15.6926L11.3791 16.0442C11.636 15.8098 11.8555 15.6117 12.04 15.4582L11.7236 14.9813C11.5208 15.2077 11.3305 15.4452 11.1537 15.6926V15.6926Z" fill="#010101"/>
<path d="M18.6328 8.45859L18.62 8.32031C18.2533 8.53477 17.882 8.74805 17.5002 8.96133L17.534 9.35508C17.6109 9.34552 17.6862 9.32622 17.7582 9.29766C18.346 8.82734 18.6375 8.54766 18.6328 8.45859Z" fill="#010101"/>
<path d="M29.2659 17.7762L33.5163 8.15391C33.4649 7.56016 34.3749 7.10273 36.2464 6.78164L36.8571 6.72891L36.9038 7.27969C38.7402 6.99766 39.8806 6.83672 40.3251 6.79687C42.6885 6.59219 44.2606 6.86562 45.0414 7.61719C44.7223 6.17344 42.975 5.5875 39.7997 5.85937C39.3575 5.89766 38.217 6.05781 36.3783 6.33984L36.3316 5.78906L35.7221 5.8418C33.8538 6.16211 32.9433 6.61992 32.9908 7.21523L28.7346 16.8363C28.2574 17.1246 27.8207 18.3258 27.4244 20.4398C26.702 21.5594 26.3719 22.4867 26.4342 23.2219L26.4657 23.5887C26.6377 23.5731 26.8111 23.5846 26.9795 23.6227C27.0698 22.9891 27.3933 22.2402 27.9499 21.3762C28.3461 19.2652 28.7848 18.0652 29.2659 17.7762Z" fill="#010101"/>
<path d="M46.0001 8.81954L45.9172 7.85158L46.3329 7.81525C46.7119 8.01457 47.0565 8.27374 47.3535 8.58283C47.19 7.92423 46.6747 7.35587 45.8075 6.87775L45.3918 6.91407L45.4747 7.88439L45.2832 7.90197C45.4755 8.18409 45.5896 8.51252 45.6136 8.85353L46.0001 8.81954Z" fill="#010101"/>
<path d="M34.0067 28.1789L35.227 28.0734C37.4339 27.8828 39.1492 28.2312 40.373 29.1187L40.3263 28.5797C39.0893 27.4 37.2144 26.9187 34.7015 27.1359L33.4813 27.2414C28.5115 29.2047 24.8718 30.2863 22.5621 30.4863C17.3169 40.9551 14.6027 46.5301 14.4198 47.2113L14.6417 47.1926C14.9012 47.1637 15.1579 47.1127 15.4088 47.0402C16.4037 44.8582 18.9633 39.6523 23.0876 31.4226C25.3973 31.2234 29.037 30.1422 34.0067 28.1789Z" fill="#010101"/>
<path d="M46.842 20.9086L51.9565 16.3946C53.0954 14.918 53.7762 12.5504 53.9988 9.29182L53.9334 8.5301C53.8557 7.6221 53.5367 6.75164 53.0098 6.0094C53.2276 6.51191 53.3625 7.04663 53.4092 7.5926L53.4734 8.35432C53.2515 11.6168 52.5708 13.9848 51.4311 15.4582L46.3142 19.9711C44.502 20.9922 43.6196 21.7735 43.6671 22.3149C43.8679 22.5391 44.0625 22.7551 44.2509 22.9629C44.4681 22.4449 45.3318 21.7602 46.842 20.9086Z" fill="#010101"/>
<path d="M12.2245 14.4785C12.151 14.5418 12.0786 14.6086 12.0062 14.6789C12.0808 14.6475 12.1594 14.6266 12.2397 14.6168L12.2245 14.4785Z" fill="#010101"/>
<path d="M39.2403 39.6715C37.3331 40.8777 34.5201 42.9188 30.8014 45.7945C30.0696 46.3703 28.7462 46.802 26.8312 47.0895L26.8499 47.2992L27.0706 47.2805L28.0515 46.984L28.069 47.1938C26.7145 48.3328 24.7344 49.0153 22.1289 49.241C20.6592 50.0332 18.8092 50.8344 16.5789 51.6445C16.4445 51.7022 16.3068 51.7519 16.1667 51.7934C15.1196 52.1668 13.9909 52.5426 12.7804 52.9207C12.1755 53.1098 11.5504 53.2996 10.905 53.4903C10.1608 55.041 9.11418 56.625 7.7651 58.2422C7.58294 58.6852 7.39727 59.209 7.20694 59.8184L7.22212 60.0024L7.6098 59.9684C9.29128 58.0785 10.5664 56.2324 11.4352 54.4301C16.3395 52.9832 20.0808 51.5668 22.6591 50.1809C25.2653 49.9559 27.2454 49.2735 28.5991 48.1336L28.5804 47.9238L27.6007 48.2203L27.3789 48.2391L27.3614 48.0293C29.2733 47.741 30.5967 47.3094 31.3315 46.7344C35.051 43.8578 37.864 41.8168 39.7705 40.6113C45.6502 36.2762 48.4188 32.1141 48.0763 28.125C48.0638 27.975 47.8891 27.6699 47.552 27.2098C47.8836 31.1918 45.1131 35.3457 39.2403 39.6715Z" fill="#010101"/>
<path d="M25.3786 8.64258C22.429 9.63711 19.4494 11.2516 16.4399 13.4859L16.023 13.5223C16.0067 13.3316 15.7264 13.1637 15.1823 13.0184H15.1624C14.8581 13.2137 14.5611 13.4203 14.2715 13.6383L13.2801 14.4445C13.0863 14.6168 12.8971 14.7961 12.7103 14.9754L12.7605 15.5531C12.5498 15.5942 12.3483 15.6736 12.1661 15.7875L12.6472 16.5129C13.5498 15.5315 14.5736 14.6698 15.6937 13.9488C16.2457 14.0957 16.5302 14.2652 16.5473 14.4574L16.963 14.4211C19.5522 12.5023 22.1184 11.0406 24.6616 10.0359C24.9383 9.72314 25.1894 9.38846 25.4125 9.03516L25.3786 8.64258Z" fill="#010101"/>
<path d="M8.6981 54.0785L8.67007 53.7528L8.66423 53.6848C8.47273 53.7012 8.34895 53.6778 8.29407 53.6133C8.27428 53.5913 8.26236 53.5632 8.26021 53.5336L7.86086 53.7539L7.47318 53.7879L7.43932 53.3942L7.21746 53.4129C6.9991 53.6133 6.53903 53.8125 5.84191 54.0094C5.73565 54.1887 5.62939 54.368 5.52547 54.5414C5.56325 54.7445 5.64628 54.9364 5.76835 55.1028C6.80838 54.8543 7.46657 54.6035 7.74292 54.3504L7.96361 54.3305L7.99748 54.7242L8.38632 54.6914L8.64088 54.5508C8.68643 54.3978 8.70577 54.2381 8.6981 54.0785V54.0785Z" fill="#010101"/>
<path d="M46.3142 19.9711L51.4276 15.4582C52.5696 13.9809 53.2515 11.6129 53.4734 8.3543L53.4091 7.59258C53.3624 7.0466 53.2276 6.51189 53.0098 6.00937C52.3255 4.42969 50.8005 3.10156 48.4348 2.025C46.596 0.772656 43.2813 0.0976562 38.4907 0C34.5205 0.34375 29.3437 1.75195 22.9603 4.22461C21.0431 5.60904 19.0447 6.87656 16.9759 8.02031L17.0051 8.41406C17.2167 8.37752 17.4186 8.29775 17.5983 8.17969C17.8575 8.15781 17.9976 8.26914 18.0186 8.51367L18.418 8.29453L18.6118 8.27695V8.31914L18.6247 8.46094C18.6317 8.55 18.3401 8.82852 17.7501 9.29648C17.058 9.84336 15.9538 10.6551 14.4373 11.7316L14.6627 12.0832L14.4688 12.0996L14.0368 11.952C14.0469 12.0754 13.8492 12.1535 13.4436 12.1863L13.4611 12.3961L13.9282 12.9117C13.7128 12.9114 13.4998 12.8667 13.3023 12.7805C12.3962 12.8586 11.5033 13.5172 10.6236 14.7562L10.849 15.1078C11.608 14.4047 12.0521 14.0488 12.1813 14.0402L12.2199 14.4797L12.2315 14.618C12.1512 14.6277 12.0726 14.6486 11.998 14.6801C11.873 14.7304 11.7513 14.7887 11.6337 14.8547L11.7154 14.9719L12.0319 15.4488L12.1148 15.5742C12.3063 15.368 12.5009 15.1676 12.6986 14.973C12.8854 14.7914 13.0746 14.6145 13.2685 14.4422C13.3911 14.3344 13.5137 14.2289 13.6386 14.1246C13.7636 14.0203 13.9165 13.8984 14.0578 13.7895L14.2598 13.6359C14.5494 13.4195 14.8464 13.2129 15.1508 13.016H15.1589H15.1706C15.7155 13.1613 15.9958 13.3293 16.0114 13.5199L16.4282 13.4836C19.4378 11.25 22.4173 9.63555 25.3669 8.64023L25.4125 9.03516C25.1894 9.38846 24.9383 9.72314 24.6617 10.0359C24.5052 10.2012 24.3814 10.2879 24.2915 10.2961C24.3117 10.5665 24.4117 10.8247 24.5787 11.0379C24.6216 11.5457 23.2842 14.9398 20.5665 21.2203C14.3918 35.8234 9.20292 46.6184 5 53.6051C5.03803 53.8077 5.12105 53.9992 5.24288 54.1652C5.46007 54.1137 5.65858 54.0621 5.84191 54.0094C6.54253 53.8125 6.99909 53.6133 7.21745 53.4129L7.43932 53.3941L7.47318 53.7879L7.86085 53.7539L8.26021 53.5336C8.26236 53.5632 8.27427 53.5912 8.29407 53.6133C8.34895 53.6777 8.47273 53.7012 8.66423 53.6848L8.67007 53.7527L8.69809 54.0785C8.70537 54.2369 8.68603 54.3953 8.64087 54.5473C8.49851 55.0058 8.29672 55.4435 8.04068 55.8492C7.61642 56.3273 7.16335 57.3363 6.68148 58.8762L6.69666 59.059L7.0855 59.0262C7.31904 58.7613 7.54558 58.4988 7.7651 58.2363C9.11418 56.6223 10.1624 55.0402 10.9097 53.4902C11.5558 53.2996 12.1809 53.1098 12.785 52.9207C13.9924 52.5426 15.1212 52.1668 16.1713 51.7934L16.5835 51.6445C18.8138 50.8336 20.6654 50.0324 22.1383 49.241C24.7446 49.016 26.7246 48.3336 28.0783 47.1938L28.0608 46.984L27.0799 47.2805L26.8593 47.2992L26.8406 47.0895C28.7525 46.8012 30.0759 46.3695 30.8107 45.7945C34.5302 42.918 37.3432 40.877 39.2497 39.6715C45.1216 35.3465 47.8922 31.1926 47.5613 27.2098C47.5619 27.2027 47.5619 27.1957 47.5613 27.1887C47.5286 26.802 46.4287 25.3934 44.2614 22.9629C44.0761 22.7543 43.8815 22.5383 43.6776 22.3148C43.6262 21.7734 44.5051 20.9922 46.3142 19.9711ZM37.3335 34.0465L32.1851 38.141C28.3621 40.6566 26.3027 41.9273 26.0068 41.9531C20.7724 44.8437 17.2406 46.5395 15.4112 47.0402C15.1602 47.1128 14.9036 47.1637 14.644 47.1926L14.4221 47.2113C14.6059 46.5254 17.32 40.9504 22.5645 30.4863C24.8742 30.2863 28.5139 29.2047 33.4836 27.2414L34.7038 27.1359C37.2167 26.9195 39.0916 27.4008 40.3286 28.5797L40.3753 29.1187L40.394 29.3402C39.4676 32.0121 38.4475 33.5809 37.3335 34.0465ZM40.5587 16.9793C40.0192 17.6254 38.5514 18.7234 36.1553 20.2734C35.3605 20.343 32.4062 21.4973 27.2925 23.7363C27.1938 23.6899 27.0905 23.6541 26.9842 23.6297C26.8157 23.5916 26.6424 23.5802 26.4704 23.5957L26.4389 23.2289C26.3758 22.4938 26.7059 21.5664 27.4291 20.4469C27.8253 18.3328 28.262 17.1316 28.7392 16.8434L32.9955 7.22227C32.9457 6.62695 33.8561 6.16914 35.7267 5.84883L36.3363 5.79609L36.383 6.34687C38.2209 6.06562 39.3614 5.90547 39.8043 5.86641C42.9766 5.58906 44.7223 6.17266 45.0414 7.61719C45.0629 7.71533 45.0781 7.81475 45.087 7.91484L45.2832 7.89844L45.4747 7.88086L45.3917 6.91406L45.8074 6.87773C46.6747 7.35586 47.19 7.92422 47.3535 8.58281C47.3779 8.68096 47.3947 8.78087 47.4037 8.88164C47.4504 9.42461 47.1631 10.0926 46.5419 10.8855C46.2839 10.9078 46.1379 10.7273 46.1052 10.3418L45.6883 10.3781L45.5938 11.55C43.8811 14.1281 42.6356 15.452 41.8571 15.5215C41.1589 16.4785 40.726 16.9645 40.5587 16.9793Z" fill="#F5DC5E"/>
</g>
<defs>
<clipPath id="clip0">
<rect width="60" height="60" fill="white"/>
</clipPath>
</defs>
</svg>
