<svg width="104" height="104" viewBox="0 0 104 104" fill="none" xmlns="http://www.w3.org/2000/svg">
<path d="M35.9109 0H12.0266C5.3952 0 0 5.3952 0 12.0266V35.9109C0 42.5423 5.3952 47.9375 12.0266 47.9375H35.9109C42.5423 47.9375 47.9375 42.5423 47.9375 35.9109V12.0266C47.9375 5.3952 42.5423 0 35.9109 0ZM39.8125 35.9109C39.8125 38.0622 38.0622 39.8125 35.9109 39.8125H12.0266C9.87533 39.8125 8.125 38.0622 8.125 35.9109V12.0266C8.125 9.87533 9.87533 8.125 12.0266 8.125H35.9109C38.0622 8.125 39.8125 9.87533 39.8125 12.0266V35.9109Z" fill="white"/>
<path d="M91.8125 0H68.25C61.5298 0 56.0625 5.46731 56.0625 12.1875V35.75C56.0625 42.4702 61.5298 47.9375 68.25 47.9375H91.8125C98.5327 47.9375 104 42.4702 104 35.75V12.1875C104 5.46731 98.5327 0 91.8125 0ZM95.875 35.75C95.875 37.9901 94.0526 39.8125 91.8125 39.8125H68.25C66.0099 39.8125 64.1875 37.9901 64.1875 35.75V12.1875C64.1875 9.94744 66.0099 8.125 68.25 8.125H91.8125C94.0526 8.125 95.875 9.94744 95.875 12.1875V35.75Z" fill="white"/>
<path d="M35.9109 56.0625H12.0266C5.3952 56.0625 0 61.4577 0 68.0891V91.9734C0 98.6048 5.3952 104 12.0266 104H35.9109C42.5423 104 47.9375 98.6048 47.9375 91.9734V68.0891C47.9375 61.4577 42.5423 56.0625 35.9109 56.0625ZM39.8125 91.9734C39.8125 94.1247 38.0622 95.875 35.9109 95.875H12.0266C9.87533 95.875 8.125 94.1247 8.125 91.9734V68.0891C8.125 65.9378 9.87533 64.1875 12.0266 64.1875H35.9109C38.0622 64.1875 39.8125 65.9378 39.8125 68.0891V91.9734Z" fill="white"/>
<path d="M91.8125 56.0625H68.25C61.5298 56.0625 56.0625 61.5298 56.0625 68.25V91.8125C56.0625 98.5327 61.5298 104 68.25 104H91.8125C98.5327 104 104 98.5327 104 91.8125V68.25C104 61.5298 98.5327 56.0625 91.8125 56.0625ZM95.875 91.8125C95.875 94.0526 94.0526 95.875 91.8125 95.875H68.25C66.0099 95.875 64.1875 94.0526 64.1875 91.8125V68.25C64.1875 66.0099 66.0099 64.1875 68.25 64.1875H91.8125C94.0526 64.1875 95.875 66.0099 95.875 68.25V91.8125Z" fill="white"/>
</svg>
