<svg width="60" height="60" viewBox="0 0 60 60" fill="none" xmlns="http://www.w3.org/2000/svg">
<g clip-path="url(#clip0)">
<path d="M16.711 21.4848L29.6109 14.007C29.7696 13.915 29.9495 13.8665 30.1328 13.8665C30.316 13.8665 30.496 13.915 30.6547 14.007L43.5545 21.4848C43.7131 21.5768 43.8449 21.7091 43.9365 21.8684C44.0281 22.0277 44.0763 22.2084 44.0764 22.3923V37.348C44.0764 37.7222 43.8772 38.068 43.5545 38.2555L30.6547 45.7334C30.496 45.8254 30.316 45.8738 30.1328 45.8738C29.9495 45.8738 29.7696 45.8254 29.6109 45.7334L16.711 38.2555C16.5524 38.1635 16.4207 38.0312 16.3291 37.8719C16.2374 37.7127 16.1892 37.532 16.1891 37.348V22.392C16.1894 22.0176 16.3883 21.672 16.711 21.4846" fill="#8080F2"/>
<path d="M63.5748 28.6445L48.1455 1.69333C47.5851 0.718933 46.5498 0 45.429 0H14.57C13.4492 0 12.4134 0.718933 11.853 1.69333L-3.57607 28.5851C-4.13647 29.5597 -4.13647 30.7899 -3.57607 31.7645L11.853 58.4949C12.4134 59.4693 13.4492 59.9675 14.57 59.9675H45.4287C46.5495 59.9675 47.5851 59.4843 48.1452 58.5096L63.5746 31.7357C64.1355 30.7616 64.1355 29.6189 63.5746 28.6445H63.5748ZM50.7985 41.6045C50.7985 42.0005 50.5611 42.3672 50.219 42.5656L30.5654 53.9504C30.3961 54.0478 30.2045 54.099 30.0095 54.099C29.8144 54.099 29.6228 54.0478 29.4536 53.9504L9.78485 42.5656C9.44303 42.3672 9.20373 42.0008 9.20373 41.6043V18.8341C9.20373 18.4376 9.43958 18.0715 9.78166 17.8731L29.4342 6.488C29.6033 6.39049 29.7949 6.33918 29.99 6.33918C30.185 6.33918 30.3766 6.39049 30.5457 6.488L50.2155 17.8731C50.5579 18.0715 50.7985 18.4376 50.7985 18.8341V41.6043V41.6045Z" fill="#4B32C3"/>
</g>
<defs>
<clipPath id="clip0">
<rect width="60" height="60" fill="white"/>
</clipPath>
</defs>
</svg>
