<svg width="104" height="104" viewBox="0 0 104 104" fill="none" xmlns="http://www.w3.org/2000/svg">
<g clip-path="url(#clip0)">
<path d="M103.878 7.76394C103.653 3.63279 100.367 0.347644 96.236 0.122175C87.9001 -0.333231 71.5884 0.109785 55.9908 8.1773C48.0395 12.2902 39.6301 19.2633 32.9191 27.3086C32.8364 27.4078 32.7559 27.5075 32.6739 27.6068L17.4436 28.7833C14.9366 28.9771 12.7036 30.2911 11.3171 32.3882L0.926463 48.1044C-0.125115 49.6948 -0.292287 51.6853 0.478978 53.4287C1.25045 55.1723 2.83563 56.3874 4.71962 56.6793L17.5512 58.6667C17.5059 58.9161 17.4604 59.1653 17.4188 59.4148C16.9916 61.9701 17.8382 64.5973 19.6838 66.4427L37.5572 84.3163C39.0873 85.8464 41.155 86.69 43.2736 86.69C43.7099 86.69 44.1486 86.654 44.5853 86.5811C44.8348 86.5395 45.084 86.494 45.3334 86.4487L47.3208 99.2805C47.6127 101.164 48.8278 102.75 50.571 103.521C51.2964 103.842 52.064 104.001 52.8281 104.001C53.9013 104 54.9668 103.688 55.8955 103.074L71.6117 92.683C73.709 91.2963 75.0228 89.0633 75.2162 86.5565L76.3927 71.3264C76.492 71.2444 76.5919 71.1639 76.6911 71.0813C84.7366 64.3702 91.7099 55.9608 95.8226 48.0093C103.891 32.4111 104.333 16.0992 103.878 7.76394ZM68.251 87.5996L53.2175 97.5391L51.2805 85.0337C57.6343 83.1656 63.9196 80.1735 69.9075 76.1653L69.1411 86.0869C69.0934 86.7058 68.7688 87.2573 68.251 87.5996ZM41.8661 80.0074L23.9925 62.1338C23.5365 61.6776 23.3257 61.0367 23.4291 60.4194C23.9604 57.2419 24.7861 54.2172 25.8083 51.3678L52.6264 78.186C49.2042 79.4118 46.1388 80.1431 43.5805 80.5709C42.9622 80.6736 42.3221 80.4634 41.8661 80.0074ZM17.913 34.859L27.8344 34.0926C23.826 40.0805 20.8339 46.3658 18.9658 52.7196L6.4606 50.7828L16.4003 35.7491C16.7428 35.2311 17.2943 34.9067 17.913 34.859ZM72.7882 66.4015C67.8659 70.5072 63.0878 73.4769 58.6836 75.6258L28.3731 45.3153C31.188 39.566 34.6235 34.7786 37.5984 31.2121C43.809 23.7665 51.5332 17.3435 58.7907 13.5898C73.1057 6.18525 88.1879 5.78652 95.9043 6.20658C96.9256 6.26224 97.7379 7.07453 97.7935 8.09605C98.2142 15.8124 97.8146 30.8944 90.4101 45.2096C86.6566 52.4669 80.2336 60.1909 72.7882 66.4015Z" fill="white"/>
<path d="M71.2402 47.9869C75.1406 47.9865 79.0426 46.5016 82.0121 43.5321C84.8896 40.6549 86.474 36.8292 86.474 32.7602C86.474 28.6912 84.8894 24.8655 82.0121 21.9883C76.0723 16.0483 66.4076 16.0487 60.4683 21.9883C57.5908 24.8655 56.0062 28.6912 56.0062 32.7602C56.0062 36.8292 57.591 40.6549 60.4683 43.5321C63.4384 46.5022 67.3384 47.9873 71.2402 47.9869ZM64.7768 26.297C66.5586 24.515 68.8992 23.624 71.2398 23.624C73.5806 23.624 75.9212 24.515 77.703 26.297C79.4294 28.0233 80.38 30.3186 80.38 32.76C80.38 35.2014 79.4294 37.4969 77.703 39.2232C74.1394 42.7871 68.3404 42.7869 64.7766 39.2232C63.0502 37.4969 62.0994 35.2016 62.0994 32.7602C62.0994 30.3188 63.0504 28.0233 64.7768 26.297Z" fill="white"/>
<path d="M3.10801 85.7062C3.8878 85.7062 4.6676 85.4088 5.26235 84.8136L15.21 74.866C16.3999 73.6761 16.3999 71.747 15.21 70.5571C14.0203 69.3672 12.091 69.3672 10.9011 70.5571L0.953663 80.5047C-0.236243 81.6947 -0.236243 83.6237 0.953663 84.8136C1.54841 85.4086 2.32821 85.7062 3.10801 85.7062Z" fill="white"/>
<path d="M24.3265 79.6736C23.1368 78.4837 21.2075 78.4837 20.0176 79.6736L0.892536 98.7988C-0.29737 99.9887 -0.29737 101.918 0.892536 103.108C1.48749 103.703 2.26708 104 3.04688 104C3.82668 104 4.60647 103.703 5.20122 103.107L24.3263 83.9824C25.5164 82.7925 25.5164 80.8635 24.3265 79.6736Z" fill="white"/>
<path d="M29.134 88.79L19.1864 98.7376C17.9965 99.9275 17.9965 101.857 19.1864 103.047C19.7813 103.641 20.5611 103.939 21.3407 103.939C22.1203 103.939 22.9003 103.642 23.4951 103.047L33.4427 93.0989C34.6326 91.909 34.6326 89.9799 33.4427 88.79C32.253 87.6001 30.3237 87.6001 29.134 88.79Z" fill="white"/>
</g>
<defs>
<clipPath id="clip0">
<rect width="104" height="104" fill="white"/>
</clipPath>
</defs>
</svg>
