<svg width="60" height="60" viewBox="0 0 60 60" fill="none" xmlns="http://www.w3.org/2000/svg">
<g clip-path="url(#clip0)">
<path d="M52.9812 19.9376C52.9812 16.3676 52.0462 13.0208 50.3994 10.1201C46.0325 5.62575 36.5337 4.5845 34.175 10.0989C31.7525 15.7514 38.2444 22.0414 41.0812 21.542C44.6937 20.9045 40.4437 12.617 40.4437 12.617C45.9687 23.0295 44.6937 19.842 34.7062 29.4045C24.7187 38.967 14.5187 59.1439 13.0312 59.9939C12.9675 60.0364 12.9037 60.0683 12.8293 60.1001H52.0037C52.6944 60.1001 53.1406 59.367 52.8325 58.7508L42.59 38.4783C42.3669 38.0426 42.5262 37.5008 42.9512 37.2564C48.9437 33.8139 52.9812 27.3539 52.9812 19.9376Z" fill="url(#paint0_linear)"/>
<path d="M52.9812 19.9376C52.9812 16.3676 52.0462 13.0208 50.3994 10.1201C46.0325 5.62575 36.5337 4.5845 34.175 10.0989C31.7525 15.7514 38.2444 22.0414 41.0812 21.542C44.6937 20.9045 40.4437 12.617 40.4437 12.617C45.9687 23.0295 44.6937 19.842 34.7062 29.4045C24.7187 38.967 14.5187 59.1439 13.0312 59.9939C12.9675 60.0364 12.9037 60.0683 12.8293 60.1001H52.0037C52.6944 60.1001 53.1406 59.367 52.8325 58.7508L42.59 38.4783C42.3669 38.0426 42.5262 37.5008 42.9512 37.2564C48.9437 33.8139 52.9812 27.3539 52.9812 19.9376Z" fill="url(#paint1_linear)"/>
<path d="M13.0312 59.9937C14.5187 59.1437 24.7187 38.9562 34.7062 29.3937C44.6937 19.8312 45.9687 23.0187 40.4437 12.6062C40.4437 12.6062 19.2999 42.25 11.6499 56.9125" fill="url(#paint2_linear)"/>
<path d="M16.0063 33.4313C30.2863 7.17689 32.1563 4.53127 39.5938 4.53127C43.5038 4.53127 47.4457 6.29502 49.9957 9.42939C46.5213 3.83002 40.3694 0.0793945 33.3251 -0.0268555H9.06818C8.55818 -0.0268555 8.1438 0.387519 8.1438 0.897519V49.7938C9.5888 46.0644 12.0432 40.7306 16.0063 33.4313Z" fill="url(#paint3_linear)"/>
<path d="M34.7063 29.3938C24.7188 38.9563 14.5188 59.1438 13.0313 59.9938C11.5438 60.8438 9.04695 60.95 7.71883 59.4625C6.3057 57.8794 4.10633 55.3188 16.0063 33.4313C30.2863 7.17687 32.1563 4.53125 39.5938 4.53125C43.5038 4.53125 47.4457 6.295 49.9957 9.42938C50.1338 9.6525 50.2719 9.88625 50.4101 10.12C46.0432 5.62563 36.5445 4.58437 34.1857 10.0988C31.7632 15.7513 38.2551 22.0413 41.0919 21.5419C44.7044 20.9044 40.4544 12.6169 40.4544 12.6169C45.9688 23.0188 44.6938 19.8313 34.7063 29.3938Z" fill="url(#paint4_linear)"/>
<path opacity="0.3" d="M17.1751 34.6C31.4551 8.34562 33.3251 5.7 40.7626 5.7C43.982 5.7 47.2226 6.90063 49.6876 9.06813C47.1376 6.15688 43.3551 4.53125 39.5938 4.53125C32.1563 4.53125 30.2863 7.17687 16.0063 33.4312C4.10633 55.3187 6.3057 57.8794 7.71883 59.4625C7.9207 59.6856 8.15445 59.8769 8.39883 60.0362C7.1557 58.23 6.6032 54.0331 17.1751 34.6Z" fill="url(#paint5_linear)"/>
</g>
<defs>
<linearGradient id="paint0_linear" x1="23.5998" y1="32.2681" x2="39.9623" y2="36.0931" gradientUnits="userSpaceOnUse">
<stop stop-color="#FF6533"/>
<stop offset="0.157" stop-color="#FF5633"/>
<stop offset="0.434" stop-color="#FF4333"/>
<stop offset="0.714" stop-color="#FF3733"/>
<stop offset="1" stop-color="#FF3333"/>
</linearGradient>
<linearGradient id="paint1_linear" x1="21.0406" y1="26.8441" x2="50.3657" y2="49.5816" gradientUnits="userSpaceOnUse">
<stop stop-color="#BF3338"/>
<stop offset="1" stop-color="#FF3333"/>
</linearGradient>
<linearGradient id="paint2_linear" x1="21.9972" y1="31.3228" x2="26.2472" y2="35.7853" gradientUnits="userSpaceOnUse">
<stop stop-color="#FF6533"/>
<stop offset="0.157" stop-color="#FF5633"/>
<stop offset="0.434" stop-color="#FF4333"/>
<stop offset="0.714" stop-color="#FF3733"/>
<stop offset="1" stop-color="#FF3333"/>
</linearGradient>
<linearGradient id="paint3_linear" x1="29.7243" y1="39.0048" x2="28.4493" y2="20.7298" gradientUnits="userSpaceOnUse">
<stop stop-color="#FF6533"/>
<stop offset="0.157" stop-color="#FF5633"/>
<stop offset="0.434" stop-color="#FF4333"/>
<stop offset="0.714" stop-color="#FF3733"/>
<stop offset="1" stop-color="#FF3333"/>
</linearGradient>
<linearGradient id="paint4_linear" x1="24.2009" y1="31.0097" x2="30.2378" y2="35.1149" gradientUnits="userSpaceOnUse">
<stop stop-color="#FBB040"/>
<stop offset="1" stop-color="#FB8840"/>
</linearGradient>
<linearGradient id="paint5_linear" x1="30.3855" y1="7.79929" x2="24.223" y2="75.5868" gradientUnits="userSpaceOnUse">
<stop stop-color="white"/>
<stop offset="1" stop-color="white" stop-opacity="0"/>
</linearGradient>
<clipPath id="clip0">
<rect width="60" height="60" fill="white"/>
</clipPath>
</defs>
</svg>
