<svg width="60" height="60" viewBox="0 0 60 60" fill="none" xmlns="http://www.w3.org/2000/svg">
<mask id="mask0" mask-type="alpha" maskUnits="userSpaceOnUse" x="6" y="0" width="48" height="60">
<path d="M7.85101 55.1687L6.00215 5.75024C5.94109 4.11815 7.18861 2.73496 8.81357 2.63308L50.7159 0.00596415C52.3699 -0.0977367 53.7945 1.16326 53.8979 2.82247C53.9018 2.88498 53.9038 2.9476 53.9038 3.01024V56.8604C53.9038 58.5229 52.5603 59.8706 50.903 59.8706C50.8581 59.8706 50.8133 59.8695 50.7684 59.8675L10.715 58.0629C9.15505 57.9927 7.90957 56.734 7.85101 55.1687Z" fill="white"/>
</mask>
<g mask="url(#mask0)">
<path d="M7.85101 55.1687L6.00215 5.75024C5.94109 4.11815 7.18861 2.73496 8.81357 2.63308L50.7159 0.00596415C52.3699 -0.0977367 53.7945 1.16326 53.8979 2.82247C53.9018 2.88498 53.9038 2.9476 53.9038 3.01024V56.8604C53.9038 58.5229 52.5603 59.8706 50.903 59.8706C50.8581 59.8706 50.8133 59.8695 50.7684 59.8675L10.715 58.0629C9.15505 57.9927 7.90957 56.734 7.85101 55.1687Z" fill="#FF4785"/>
<path d="M41.3733 7.35904L41.6595 0.453555L47.414 0L47.6619 7.12139C47.6705 7.36923 47.4772 7.57716 47.2301 7.58582C47.1244 7.58952 47.0207 7.5555 46.9375 7.48979L44.7184 5.73617L42.0911 7.73545C41.8941 7.88532 41.6133 7.84665 41.4639 7.64907C41.401 7.5659 41.369 7.46335 41.3733 7.35904ZM34.0139 22.566C34.0139 23.7371 41.8777 23.1759 42.9334 22.3532C42.9334 14.3782 38.6675 10.1874 30.8561 10.1874C23.0447 10.1874 18.6681 14.4434 18.6681 20.8273C18.6681 31.946 33.6261 32.1588 33.6261 38.2236C33.6261 39.926 32.7951 40.9367 30.9669 40.9367C28.5847 40.9367 27.6429 39.7163 27.7537 35.5668C27.7537 34.6666 18.6681 34.3859 18.3911 35.5668C17.6857 45.6226 23.9311 48.5231 31.0777 48.5231C38.0027 48.5231 43.432 44.8203 43.432 38.1172C43.432 26.2005 28.2523 26.5197 28.2523 20.6145C28.2523 18.2206 30.0251 17.9014 31.0777 17.9014C32.1857 17.9014 34.1801 18.0973 34.0139 22.566Z" fill="white"/>
</g>
</svg>
