<svg width="143" height="30" viewBox="0 0 143 30" fill="none" xmlns="http://www.w3.org/2000/svg">
<rect width="30" height="30" rx="15" fill="#86C232"/>
<path d="M15.744 8.45999H19.5456V18.8856H25.9584V21.9H15.744V8.45999Z" fill="white"/>
<path d="M18.276 8.45999L12.516 21.9H8.77199L3.03119 8.45999H7.13999L10.788 17.2152L14.5128 8.45999H18.276Z" fill="#1D1D1D"/>
<path d="M51.576 8.46001L45.816 21.9H42.072L36.3312 8.46001H40.44L44.088 17.2152L47.8128 8.46001H51.576Z" fill="white"/>
<path d="M52.4712 11.4936H56.1192V21.9H52.4712V11.4936ZM54.2952 10.3416C53.6296 10.3416 53.092 10.156 52.6824 9.78481C52.2728 9.41361 52.068 8.95281 52.068 8.40241C52.068 7.85201 52.2728 7.39121 52.6824 7.02001C53.092 6.64881 53.6296 6.46321 54.2952 6.46321C54.9608 6.46321 55.4984 6.64241 55.908 7.00081C56.3176 7.34641 56.5224 7.79441 56.5224 8.34481C56.5224 8.92081 56.3176 9.40081 55.908 9.78481C55.4984 10.156 54.9608 10.3416 54.2952 10.3416Z" fill="white"/>
<path d="M65.6707 21.4776C65.3635 21.6696 64.9859 21.8168 64.5379 21.9192C64.1027 22.0216 63.6355 22.0728 63.1363 22.0728C61.7795 22.0728 60.7363 21.74 60.0067 21.0744C59.2771 20.4088 58.9123 19.4168 58.9123 18.0984V14.604H57.3955V11.8776H58.9123V9.17041H62.5603V11.8776H64.9411V14.604H62.5603V18.06C62.5603 18.4312 62.6563 18.7256 62.8483 18.9432C63.0531 19.148 63.3219 19.2504 63.6547 19.2504C64.0771 19.2504 64.4483 19.1416 64.7683 18.924L65.6707 21.4776Z" fill="white"/>
<path d="M78.0214 11.4936V21.9H74.5462V20.7864C74.1622 21.2088 73.7014 21.5288 73.1638 21.7464C72.6262 21.964 72.0566 22.0728 71.455 22.0728C70.111 22.0728 69.0358 21.676 68.2294 20.8824C67.4358 20.0888 67.039 18.8984 67.039 17.3112V11.4936H70.687V16.716C70.687 17.4968 70.8342 18.0664 71.1286 18.4248C71.423 18.7832 71.8518 18.9624 72.415 18.9624C72.991 18.9624 73.4582 18.764 73.8166 18.3672C74.1878 17.9576 74.3734 17.3368 74.3734 16.5048V11.4936H78.0214Z" fill="white"/>
<path d="M84.1536 22.0728C83.2832 22.0728 82.4256 21.9768 81.5808 21.7848C80.736 21.58 80.0576 21.3176 79.5456 20.9976L80.64 18.5016C81.1136 18.796 81.6768 19.0328 82.3296 19.212C82.9824 19.3784 83.6288 19.4616 84.2688 19.4616C84.8576 19.4616 85.2736 19.404 85.5168 19.2888C85.7728 19.1608 85.9008 18.9816 85.9008 18.7512C85.9008 18.5208 85.7472 18.3608 85.44 18.2712C85.1456 18.1688 84.672 18.0728 84.0192 17.9832C83.1872 17.8808 82.4768 17.7464 81.888 17.58C81.312 17.4136 80.8128 17.1064 80.3904 16.6584C79.968 16.2104 79.7568 15.5832 79.7568 14.7768C79.7568 14.1112 79.9552 13.5224 80.352 13.0104C80.7488 12.4856 81.3248 12.076 82.08 11.7816C82.848 11.4744 83.7632 11.3208 84.8256 11.3208C85.5808 11.3208 86.3296 11.3976 87.072 11.5512C87.8144 11.7048 88.4352 11.9224 88.9344 12.204L87.84 14.6808C86.9184 14.1688 85.92 13.9128 84.8448 13.9128C84.2688 13.9128 83.8464 13.9832 83.5776 14.124C83.3088 14.252 83.1744 14.4248 83.1744 14.6424C83.1744 14.8856 83.3216 15.0584 83.616 15.1608C83.9104 15.2504 84.3968 15.3464 85.0752 15.4488C85.9328 15.5768 86.6432 15.724 87.2064 15.8904C87.7696 16.0568 88.256 16.364 88.6656 16.812C89.088 17.2472 89.2992 17.8616 89.2992 18.6552C89.2992 19.308 89.1008 19.8968 88.704 20.4216C88.3072 20.9336 87.7184 21.3368 86.9376 21.6312C86.1696 21.9256 85.2416 22.0728 84.1536 22.0728Z" fill="white"/>
<path d="M96.6315 8.46001H100.433V18.8856H106.846V21.9H96.6315V8.46001Z" fill="white"/>
<path d="M112.763 11.3208C114.491 11.3208 115.809 11.7176 116.718 12.5112C117.627 13.292 118.081 14.4952 118.081 16.1208V21.9H114.683V20.556C114.158 21.5672 113.134 22.0728 111.611 22.0728C110.804 22.0728 110.107 21.932 109.518 21.6504C108.929 21.3688 108.481 20.9912 108.174 20.5176C107.879 20.0312 107.732 19.4808 107.732 18.8664C107.732 17.8808 108.11 17.1192 108.865 16.5816C109.62 16.0312 110.785 15.756 112.359 15.756H114.433C114.369 14.6552 113.633 14.1048 112.225 14.1048C111.726 14.1048 111.22 14.188 110.708 14.3544C110.196 14.508 109.761 14.7256 109.403 15.0072L108.174 12.5304C108.75 12.1464 109.447 11.852 110.267 11.6472C111.099 11.4296 111.931 11.3208 112.763 11.3208ZM112.628 19.7688C113.051 19.7688 113.422 19.6664 113.742 19.4616C114.062 19.2568 114.292 18.956 114.433 18.5592V17.6568H112.859C111.796 17.6568 111.265 18.0088 111.265 18.7128C111.265 19.0328 111.387 19.2888 111.63 19.4808C111.873 19.6728 112.206 19.7688 112.628 19.7688Z" fill="white"/>
<path d="M126.931 11.3208C127.878 11.3208 128.736 11.5384 129.504 11.9736C130.284 12.4088 130.899 13.036 131.347 13.8552C131.808 14.6616 132.038 15.6024 132.038 16.6776C132.038 17.7528 131.808 18.7 131.347 19.5192C130.899 20.3384 130.284 20.972 129.504 21.42C128.736 21.8552 127.878 22.0728 126.931 22.0728C125.561 22.0728 124.537 21.6696 123.859 20.8632V21.9H120.384V7.65361H124.032V12.396C124.736 11.6792 125.702 11.3208 126.931 11.3208ZM126.163 19.1736C126.803 19.1736 127.328 18.956 127.737 18.5208C128.147 18.0728 128.352 17.4584 128.352 16.6776C128.352 15.9096 128.147 15.308 127.737 14.8728C127.328 14.4376 126.803 14.22 126.163 14.22C125.523 14.22 124.998 14.4376 124.588 14.8728C124.179 15.308 123.974 15.9096 123.974 16.6776C123.974 17.4584 124.179 18.0728 124.588 18.5208C124.998 18.956 125.523 19.1736 126.163 19.1736Z" fill="white"/>
<path d="M137.516 22.0728C136.646 22.0728 135.788 21.9768 134.943 21.7848C134.098 21.58 133.42 21.3176 132.908 20.9976L134.002 18.5016C134.476 18.796 135.039 19.0328 135.692 19.212C136.345 19.3784 136.991 19.4616 137.631 19.4616C138.22 19.4616 138.636 19.404 138.879 19.2888C139.135 19.1608 139.263 18.9816 139.263 18.7512C139.263 18.5208 139.11 18.3608 138.802 18.2712C138.508 18.1688 138.034 18.0728 137.382 17.9832C136.55 17.8808 135.839 17.7464 135.25 17.58C134.674 17.4136 134.175 17.1064 133.753 16.6584C133.33 16.2104 133.119 15.5832 133.119 14.7768C133.119 14.1112 133.318 13.5224 133.714 13.0104C134.111 12.4856 134.687 12.076 135.442 11.7816C136.21 11.4744 137.126 11.3208 138.188 11.3208C138.943 11.3208 139.692 11.3976 140.434 11.5512C141.177 11.7048 141.798 11.9224 142.297 12.204L141.202 14.6808C140.281 14.1688 139.282 13.9128 138.207 13.9128C137.631 13.9128 137.209 13.9832 136.94 14.124C136.671 14.252 136.537 14.4248 136.537 14.6424C136.537 14.8856 136.684 15.0584 136.978 15.1608C137.273 15.2504 137.759 15.3464 138.438 15.4488C139.295 15.5768 140.006 15.724 140.569 15.8904C141.132 16.0568 141.618 16.364 142.028 16.812C142.45 17.2472 142.662 17.8616 142.662 18.6552C142.662 19.308 142.463 19.8968 142.066 20.4216C141.67 20.9336 141.081 21.3368 140.3 21.6312C139.532 21.9256 138.604 22.0728 137.516 22.0728Z" fill="white"/>
</svg>
