<svg width="176" height="30" viewBox="0 0 176 30" fill="none" xmlns="http://www.w3.org/2000/svg">
  <path
    d="M60.72 7.2L53.52 24H48.84L41.664 7.2H46.8L51.36 18.144L56.016 7.2H60.72ZM61.839 10.992H66.399V24H61.839V10.992ZM64.119 9.552C63.287 9.552 62.615 9.32 62.103 8.856C61.591 8.392 61.335 7.816 61.335 7.128C61.335 6.44 61.591 5.864 62.103 5.4C62.615 4.936 63.287 4.704 64.119 4.704C64.951 4.704 65.623 4.928 66.135 5.376C66.647 5.808 66.903 6.368 66.903 7.056C66.903 7.776 66.647 8.376 66.135 8.856C65.623 9.32 64.951 9.552 64.119 9.552ZM78.3384 23.472C77.9544 23.712 77.4824 23.896 76.9224 24.024C76.3784 24.152 75.7944 24.216 75.1704 24.216C73.4744 24.216 72.1704 23.8 71.2584 22.968C70.3464 22.136 69.8904 20.896 69.8904 19.248V14.88H67.9944V11.472H69.8904V8.088H74.4504V11.472H77.4264V14.88H74.4504V19.2C74.4504 19.664 74.5704 20.032 74.8104 20.304C75.0664 20.56 75.4024 20.688 75.8184 20.688C76.3464 20.688 76.8104 20.552 77.2104 20.28L78.3384 23.472ZM93.7768 10.992V24H89.4328V22.608C88.9528 23.136 88.3768 23.536 87.7048 23.808C87.0328 24.08 86.3208 24.216 85.5688 24.216C83.8888 24.216 82.5448 23.72 81.5368 22.728C80.5448 21.736 80.0488 20.248 80.0488 18.264V10.992H84.6088V17.52C84.6088 18.496 84.7928 19.208 85.1608 19.656C85.5288 20.104 86.0648 20.328 86.7688 20.328C87.4888 20.328 88.0728 20.08 88.5208 19.584C88.9848 19.072 89.2168 18.296 89.2168 17.256V10.992H93.7768ZM101.442 24.216C100.354 24.216 99.282 24.096 98.226 23.856C97.17 23.6 96.322 23.272 95.682 22.872L97.05 19.752C97.642 20.12 98.346 20.416 99.162 20.64C99.978 20.848 100.786 20.952 101.586 20.952C102.322 20.952 102.842 20.88 103.146 20.736C103.466 20.576 103.626 20.352 103.626 20.064C103.626 19.776 103.434 19.576 103.05 19.464C102.682 19.336 102.09 19.216 101.274 19.104C100.234 18.976 99.346 18.808 98.61 18.6C97.89 18.392 97.266 18.008 96.738 17.448C96.21 16.888 95.946 16.104 95.946 15.096C95.946 14.264 96.194 13.528 96.69 12.888C97.186 12.232 97.906 11.72 98.85 11.352C99.81 10.968 100.954 10.776 102.282 10.776C103.226 10.776 104.162 10.872 105.09 11.064C106.018 11.256 106.794 11.528 107.418 11.88L106.05 14.976C104.898 14.336 103.65 14.016 102.306 14.016C101.586 14.016 101.058 14.104 100.722 14.28C100.386 14.44 100.218 14.656 100.218 14.928C100.218 15.232 100.402 15.448 100.77 15.576C101.138 15.688 101.746 15.808 102.594 15.936C103.666 16.096 104.554 16.28 105.258 16.488C105.962 16.696 106.57 17.08 107.082 17.64C107.61 18.184 107.874 18.952 107.874 19.944C107.874 20.76 107.626 21.496 107.13 22.152C106.634 22.792 105.898 23.296 104.922 23.664C103.962 24.032 102.802 24.216 101.442 24.216ZM117.039 7.2H121.791V20.232H129.807V24H117.039V7.2ZM137.203 10.776C139.363 10.776 141.011 11.272 142.147 12.264C143.283 13.24 143.851 14.744 143.851 16.776V24H139.603V22.32C138.947 23.584 137.667 24.216 135.763 24.216C134.755 24.216 133.883 24.04 133.147 23.688C132.411 23.336 131.851 22.864 131.467 22.272C131.099 21.664 130.915 20.976 130.915 20.208C130.915 18.976 131.387 18.024 132.331 17.352C133.275 16.664 134.731 16.32 136.699 16.32H139.291C139.211 14.944 138.291 14.256 136.531 14.256C135.907 14.256 135.275 14.36 134.635 14.568C133.995 14.76 133.451 15.032 133.003 15.384L131.467 12.288C132.187 11.808 133.059 11.44 134.083 11.184C135.123 10.912 136.163 10.776 137.203 10.776ZM137.035 21.336C137.563 21.336 138.027 21.208 138.427 20.952C138.827 20.696 139.115 20.32 139.291 19.824V18.696H137.323C135.995 18.696 135.331 19.136 135.331 20.016C135.331 20.416 135.483 20.736 135.787 20.976C136.091 21.216 136.507 21.336 137.035 21.336ZM154.914 10.776C156.098 10.776 157.17 11.048 158.13 11.592C159.106 12.136 159.874 12.92 160.434 13.944C161.01 14.952 161.298 16.128 161.298 17.472C161.298 18.816 161.01 20 160.434 21.024C159.874 22.048 159.106 22.84 158.13 23.4C157.17 23.944 156.098 24.216 154.914 24.216C153.202 24.216 151.922 23.712 151.074 22.704V24H146.73V6.192H151.29V12.12C152.17 11.224 153.378 10.776 154.914 10.776ZM153.954 20.592C154.754 20.592 155.41 20.32 155.922 19.776C156.434 19.216 156.69 18.448 156.69 17.472C156.69 16.512 156.434 15.76 155.922 15.216C155.41 14.672 154.754 14.4 153.954 14.4C153.154 14.4 152.498 14.672 151.986 15.216C151.474 15.76 151.218 16.512 151.218 17.472C151.218 18.448 151.474 19.216 151.986 19.776C152.498 20.32 153.154 20.592 153.954 20.592ZM168.145 24.216C167.057 24.216 165.985 24.096 164.929 23.856C163.873 23.6 163.025 23.272 162.385 22.872L163.753 19.752C164.345 20.12 165.049 20.416 165.865 20.64C166.681 20.848 167.489 20.952 168.289 20.952C169.025 20.952 169.545 20.88 169.849 20.736C170.169 20.576 170.329 20.352 170.329 20.064C170.329 19.776 170.137 19.576 169.753 19.464C169.385 19.336 168.793 19.216 167.977 19.104C166.937 18.976 166.049 18.808 165.313 18.6C164.593 18.392 163.969 18.008 163.441 17.448C162.913 16.888 162.649 16.104 162.649 15.096C162.649 14.264 162.897 13.528 163.393 12.888C163.889 12.232 164.609 11.72 165.553 11.352C166.513 10.968 167.657 10.776 168.985 10.776C169.929 10.776 170.865 10.872 171.793 11.064C172.721 11.256 173.497 11.528 174.121 11.88L172.753 14.976C171.601 14.336 170.353 14.016 169.009 14.016C168.289 14.016 167.761 14.104 167.425 14.28C167.089 14.44 166.921 14.656 166.921 14.928C166.921 15.232 167.105 15.448 167.473 15.576C167.841 15.688 168.449 15.808 169.297 15.936C170.369 16.096 171.257 16.28 171.961 16.488C172.665 16.696 173.273 17.08 173.785 17.64C174.313 18.184 174.577 18.952 174.577 19.944C174.577 20.76 174.329 21.496 173.833 22.152C173.337 22.792 172.601 23.296 171.625 23.664C170.665 24.032 169.505 24.216 168.145 24.216Z"
    fill="white" />
  <path d="M0 0H25C27.2091 0 29 1.79086 29 4V29H4C1.79086 29 0 27.2091 0 25V0Z" fill="currentColor" />
  <path d="M24.32 7.2L17.216 24H11.648L4.544 7.2H10.64L14.648 17.016L18.752 7.2H24.32Z" fill="white" />
</svg>
